<svg width="50" height="50" viewBox="0 0 50 50" fill="none" xmlns="http://www.w3.org/2000/svg">
<path d="M49.25 25C49.25 38.3929 38.3929 49.25 25 49.25C11.6071 49.25 0.75 38.3929 0.75 25C0.75 11.6071 11.6071 0.75 25 0.75C38.3929 0.75 49.25 11.6071 49.25 25Z" fill="#2B2C2D" stroke="white" stroke-width="1.5"/>
<path d="M32.8555 13.3028L27.4222 21.2641C27.3341 21.3791 27.2933 21.5227 27.3082 21.666C27.3231 21.8094 27.3923 21.9419 27.5021 22.0368C27.6117 22.1318 27.7538 22.1822 27.8997 22.178C28.0456 22.1737 28.1844 22.1151 28.2883 22.014L33.6349 17.4531C33.6658 17.4251 33.7042 17.4068 33.7455 17.4003C33.7868 17.3938 33.8292 17.3993 33.8673 17.4163C33.9053 17.4333 33.9376 17.4609 33.9599 17.4959C33.9823 17.5308 33.9937 17.5714 33.9928 17.6127V31.948C33.9924 31.9915 33.9785 32.0338 33.9531 32.0693C33.9277 32.1048 33.8919 32.1319 33.8504 32.1467C33.8089 32.1616 33.7639 32.1636 33.7213 32.1525C33.6787 32.1415 33.6405 32.1179 33.6118 32.0848L17.4448 12.9863C17.1867 12.6797 16.8639 12.4325 16.4987 12.2622C16.1337 12.0918 15.7353 12.0024 15.3316 12.0001H14.7686C14.0344 12.0001 13.33 12.2881 12.8109 12.8007C12.2916 13.3134 12 14.0087 12 14.7337V34.9211C12 35.6461 12.2916 36.3414 12.8109 36.854C13.33 37.3667 14.0344 37.6547 14.7686 37.6547C15.2418 37.6545 15.7069 37.5348 16.1198 37.3067C16.5328 37.0788 16.8796 36.75 17.1272 36.3519L22.5605 28.3905C22.6486 28.2756 22.6893 28.1321 22.6744 27.9886C22.6596 27.8453 22.5904 27.7129 22.4806 27.6178C22.371 27.5229 22.2288 27.4724 22.0829 27.4767C21.9371 27.4809 21.7982 27.5395 21.6944 27.6408L16.3478 32.2016C16.317 32.2295 16.2784 32.2479 16.2371 32.2545C16.196 32.261 16.1535 32.2554 16.1155 32.2385C16.0774 32.2214 16.0452 32.1937 16.0228 32.1589C16.0004 32.1239 15.989 32.0833 15.9898 32.042V17.7211C15.9903 17.6775 16.0041 17.6351 16.0296 17.5996C16.055 17.5641 16.0908 17.5371 16.1323 17.5222C16.1737 17.5073 16.2188 17.5053 16.2614 17.5164C16.304 17.5275 16.3423 17.5511 16.3709 17.5841L32.5378 36.6826C32.798 36.9865 33.122 37.2306 33.4876 37.398C33.853 37.5654 34.2511 37.6521 34.6539 37.6518H35.2314C35.595 37.6518 35.955 37.5812 36.2909 37.4437C36.6268 37.3063 36.932 37.1049 37.1891 36.8511C37.4462 36.5974 37.6502 36.2959 37.7893 35.9643C37.9284 35.6326 38 35.2771 38 34.9182V14.7337C38 14.3733 37.9278 14.0164 37.7877 13.6836C37.6474 13.3508 37.4419 13.0487 37.183 12.7947C36.924 12.5406 36.6168 12.3395 36.2789 12.2032C35.9409 12.0668 35.5791 11.9978 35.2141 12.0001C34.7409 12.0001 34.2758 12.1198 33.8628 12.3479C33.4499 12.576 33.103 12.9047 32.8555 13.3028Z" fill="white"/>
</svg>
